<svg width="79" height="34" viewBox="0 0 79 34" fill="none" xmlns="http://www.w3.org/2000/svg">
<g clip-path="url(#clip0_231_67)">
<path d="M43.0834 20.5278C42.7779 20.5 42.4723 20.6111 42.2223 20.8333C41.9168 21.1389 41.4168 21.1389 41.0834 20.8333C40.8057 20.6389 40.5001 20.5278 40.1668 20.5278C39.8334 20.5 39.5001 20.6111 39.2501 20.8333C39.0834 20.9722 38.889 21.0556 38.6668 21.0556C38.4446 21.0556 38.2501 20.9722 38.0834 20.8333C37.8057 20.6111 37.4723 20.5 37.139 20.5C36.8057 20.5 36.4723 20.6111 36.1946 20.8333C36.0279 20.9722 35.7779 21.0556 35.5557 21.0556V21.6111C35.9168 21.6389 36.2779 21.5278 36.5557 21.2778C36.7223 21.1389 36.9723 21.0556 37.1946 21.0556C37.389 21.0556 37.6112 21.1389 37.7779 21.2778C38.2779 21.7222 39.0557 21.7222 39.5834 21.2778C39.7501 21.1389 39.9446 21.0556 40.1668 21.0556C40.3612 21.0556 40.5557 21.1389 40.7223 21.2778C41.2501 21.7222 42.0001 21.7222 42.5279 21.2778C42.6668 21.1389 42.889 21.0556 43.0834 21.0556C43.2779 21.0556 43.4723 21.1389 43.6112 21.2778C43.8612 21.4722 44.139 21.5833 44.4446 21.6111V21.0556C44.1668 21.0556 44.1112 20.9444 43.9723 20.8333C43.7223 20.6389 43.4168 20.5278 43.0834 20.5278V20.5278Z" fill="#FA4238"/>
<path d="M36.6667 19.3889C36.6667 19.2222 36.8056 19.1111 36.9722 19.1111H43.8889L42.9167 19.9722H42.9722C43.1945 19.9722 43.4167 20.0278 43.5834 20.1111L44.2778 19.5L44.3334 19.4444C44.5278 19.2222 44.5 18.8611 44.2778 18.6667C44.1667 18.6111 44.0556 18.5555 43.9167 18.5555H36.9722C36.5 18.5555 36.1389 18.9167 36.1389 19.3889V20.2778C36.2778 20.1389 36.4722 20.0555 36.6667 19.9722V19.3889V19.3889Z" fill="#FA4238"/>
<path d="M37.4723 18.2778H39.1667V16.1111C39.1667 15.9444 39.0834 15.7778 38.9445 15.6667C38.6945 15.4722 38.3334 15.5278 38.1667 15.7778L37.0279 17.4167C36.9167 17.5833 36.9167 17.8056 37.0001 18C37.0834 18.1667 37.2779 18.2778 37.4723 18.2778V18.2778ZM38.639 16.1111L38.6112 17.7222H37.4723L38.639 16.1111Z" fill="#FA4238"/>
<path d="M42.2221 18C42.3332 17.8333 42.3332 17.6111 42.2221 17.4444L40.4721 14.5555C40.361 14.3889 40.1943 14.2778 39.9999 14.2778C39.6943 14.2778 39.4443 14.5278 39.4443 14.8333V18.2778H41.7499C41.9443 18.2778 42.1388 18.1667 42.2221 18ZM39.9721 14.8333L41.7499 17.75H39.9721V14.8333Z" fill="#FA4238"/>
</g>
<g clip-path="url(#clip1_231_67)">
<path d="M44.9447 7.74362L43.7591 5.6418C43.369 4.95018 43.6539 4.10673 44.3484 3.90047C44.5643 3.83791 44.8051 3.94678 44.925 4.15936L46.8148 7.50969C46.9364 7.72526 46.9033 7.98466 46.7381 8.13704C46.6127 8.25142 46.4623 8.33281 46.2977 8.37528C46.1332 8.41775 45.9586 8.42023 45.7868 8.38255C45.615 8.34486 45.4503 8.26795 45.3046 8.15742C45.1589 8.04689 45.036 7.90553 44.9447 7.74362V7.74362ZM45.4563 7.25769C45.4322 7.21481 45.3935 7.18242 45.3488 7.16765C45.3041 7.15288 45.2571 7.15693 45.2182 7.17892C45.1792 7.20091 45.1514 7.23903 45.1409 7.2849C45.1305 7.33076 45.1382 7.38062 45.1624 7.4235C45.1866 7.46638 45.2253 7.49877 45.2699 7.51354C45.3146 7.52832 45.3616 7.52426 45.4006 7.50227C45.4395 7.48029 45.4673 7.44217 45.4778 7.3963C45.4882 7.35043 45.4805 7.30057 45.4563 7.25769V7.25769ZM44.4295 5.43731C44.4054 5.39443 44.3667 5.36204 44.322 5.34727C44.2773 5.3325 44.2303 5.33655 44.1914 5.35854C44.1524 5.38053 44.1246 5.41865 44.1141 5.46452C44.1037 5.51039 44.1114 5.56024 44.1356 5.60312C44.1598 5.646 44.1984 5.67839 44.2431 5.69316C44.2878 5.70794 44.3348 5.70388 44.3738 5.6819C44.4127 5.65991 44.4405 5.62179 44.451 5.57592C44.4614 5.53005 44.4537 5.48019 44.4295 5.43731ZM45.426 6.43419C45.387 6.45618 45.3592 6.4943 45.3488 6.54017C45.3383 6.58604 45.346 6.63589 45.3702 6.67877C45.3944 6.72165 45.4331 6.75404 45.4777 6.76881C45.5224 6.78359 45.5694 6.77953 45.6084 6.75755C45.6473 6.73556 45.6751 6.69744 45.6856 6.65157C45.696 6.6057 45.6883 6.55584 45.6641 6.51296C45.64 6.47008 45.6013 6.43769 45.5566 6.42292C45.5119 6.40815 45.465 6.4122 45.426 6.43419ZM44.9379 5.56891C44.8989 5.5909 44.8711 5.62902 44.8607 5.67489C44.8502 5.72076 44.8579 5.77061 44.8821 5.81349C44.9063 5.85637 44.945 5.88876 44.9897 5.90354C45.0343 5.91831 45.0813 5.91426 45.1203 5.89227C45.1593 5.87028 45.1871 5.83216 45.1975 5.78629C45.208 5.74042 45.2003 5.69056 45.1761 5.64768C45.1519 5.6048 45.1132 5.57241 45.0685 5.55764C45.0239 5.54287 44.9769 5.54692 44.9379 5.56891V5.56891ZM44.7048 6.26873C44.6658 6.29072 44.638 6.32884 44.6275 6.37471C44.6171 6.42057 44.6248 6.47043 44.649 6.51331C44.6732 6.55619 44.7119 6.58858 44.7565 6.60335C44.8012 6.61813 44.8482 6.61407 44.8872 6.59209C44.9261 6.5701 44.9539 6.53198 44.9644 6.48611C44.9748 6.44024 44.9671 6.39038 44.9429 6.3475C44.9188 6.30462 44.8801 6.27223 44.8354 6.25746C44.7907 6.24269 44.7437 6.24674 44.7048 6.26873V6.26873ZM51.1908 1.01971L52.7428 3.77124C53.0975 4.39999 52.855 5.1722 52.2324 5.38521L47.8301 6.9054L47.8175 6.88294L47.8274 6.90693L47.0958 7.31962L45.2313 4.0142L45.9629 3.60151L45.9782 3.62213L45.9674 3.60297L49.5428 0.623222C50.0515 0.202084 50.8362 0.390962 51.1908 1.01971V1.01971ZM48.0422 3.14695L49.2937 5.36554C49.3578 5.47931 49.4898 5.53513 49.6006 5.49629L51.5648 4.81856C52 4.6678 52.1701 4.12981 51.9219 3.68968L50.836 1.76451C50.5877 1.32439 50.0393 1.19171 49.6851 1.48619L48.0891 2.81662C48.0455 2.85425 48.0169 2.9078 48.0083 2.96807C47.9998 3.02834 48.0118 3.09158 48.0422 3.14695Z" fill="#FA4238"/>
</g>
<circle cx="42.25" cy="7.25" r="0.25" fill="#FA4238"/>
<circle cx="41.25" cy="11.25" r="0.25" fill="#FA4238"/>
<circle cx="39.25" cy="9.25" r="0.25" fill="#FA4238"/>
<circle cx="41.25" cy="9.25" r="0.25" fill="#FA4238"/>
<rect x="50" y="16" width="29" height="1" fill="#FA4238"/>
<rect x="50" y="16" width="29" height="1" fill="#FA4238"/>
<rect y="16" width="29" height="1" fill="#FA4238"/>
<rect y="19" width="29" height="1" fill="#FA4238"/>
<rect x="50" y="19" width="29" height="1" fill="#FA4238"/>
<path d="M13.0568 33V24.2727H18.2898V25.2102H14.1136V28.1591H17.8977V29.0966H14.1136V33H13.0568ZM19.9634 33V26.4545H20.9691V33H19.9634ZM20.4748 25.3636C20.2788 25.3636 20.1097 25.2969 19.9677 25.1634C19.8285 25.0298 19.7589 24.8693 19.7589 24.6818C19.7589 24.4943 19.8285 24.3338 19.9677 24.2003C20.1097 24.0668 20.2788 24 20.4748 24C20.6708 24 20.8384 24.0668 20.9776 24.2003C21.1197 24.3338 21.1907 24.4943 21.1907 24.6818C21.1907 24.8693 21.1197 25.0298 20.9776 25.1634C20.8384 25.2969 20.6708 25.3636 20.4748 25.3636ZM27.4474 27.9205L26.544 28.1761C26.4872 28.0256 26.4034 27.8793 26.2926 27.7372C26.1847 27.5923 26.0369 27.473 25.8494 27.3793C25.6619 27.2855 25.4219 27.2386 25.1293 27.2386C24.7287 27.2386 24.3949 27.331 24.1278 27.5156C23.8636 27.6974 23.7315 27.929 23.7315 28.2102C23.7315 28.4602 23.8224 28.6577 24.0043 28.8026C24.1861 28.9474 24.4702 29.0682 24.8565 29.1648L25.8281 29.4034C26.4134 29.5455 26.8494 29.7628 27.1364 30.0554C27.4233 30.3452 27.5668 30.7187 27.5668 31.1761C27.5668 31.5511 27.4588 31.8864 27.2429 32.1818C27.0298 32.4773 26.7315 32.7102 26.348 32.8807C25.9645 33.0511 25.5185 33.1364 25.0099 33.1364C24.3423 33.1364 23.7898 32.9915 23.3523 32.7017C22.9148 32.4119 22.6378 31.9886 22.5213 31.4318L23.4759 31.1932C23.5668 31.5455 23.7386 31.8097 23.9915 31.9858C24.2472 32.1619 24.581 32.25 24.9929 32.25C25.4616 32.25 25.8338 32.1506 26.1094 31.9517C26.3878 31.75 26.527 31.5085 26.527 31.2273C26.527 31 26.4474 30.8097 26.2884 30.6562C26.1293 30.5 25.8849 30.3835 25.5554 30.3068L24.4645 30.0511C23.8651 29.9091 23.4247 29.6889 23.1435 29.3906C22.8651 29.0895 22.7259 28.7131 22.7259 28.2614C22.7259 27.892 22.8295 27.5653 23.0369 27.2812C23.2472 26.9972 23.5327 26.7741 23.8935 26.6122C24.2571 26.4503 24.669 26.3693 25.1293 26.3693C25.777 26.3693 26.2855 26.5114 26.6548 26.7955C27.027 27.0795 27.2912 27.4545 27.4474 27.9205ZM30.0863 29.0625V33H29.0806V24.2727H30.0863V27.4773H30.1715C30.3249 27.1392 30.555 26.8707 30.8619 26.6719C31.1715 26.4702 31.5835 26.3693 32.0977 26.3693C32.5437 26.3693 32.9343 26.4588 33.2695 26.6378C33.6048 26.8139 33.8647 27.0852 34.0494 27.4517C34.2369 27.8153 34.3306 28.2784 34.3306 28.8409V33H33.3249V28.9091C33.3249 28.3892 33.19 27.9872 32.9201 27.7031C32.6531 27.4162 32.2823 27.2727 31.8079 27.2727C31.4783 27.2727 31.1829 27.3423 30.9215 27.4815C30.663 27.6207 30.4585 27.8239 30.3079 28.0909C30.1602 28.358 30.0863 28.6818 30.0863 29.0625ZM36.3068 33V24.2727H41.5398V25.2102H37.3636V28.1591H41.1477V29.0966H37.3636V33H36.3068ZM43.1431 33V26.4545H44.1147V27.4432H44.1829C44.3022 27.1193 44.5181 26.8565 44.8306 26.6548C45.1431 26.4531 45.4954 26.3523 45.8874 26.3523C45.9613 26.3523 46.0536 26.3537 46.1644 26.3565C46.2752 26.3594 46.359 26.3636 46.4158 26.3693V27.392C46.3817 27.3835 46.3036 27.3707 46.1815 27.3537C46.0621 27.3338 45.9357 27.3239 45.8022 27.3239C45.484 27.3239 45.1999 27.3906 44.9499 27.5241C44.7028 27.6548 44.5067 27.8366 44.3619 28.0696C44.2198 28.2997 44.1488 28.5625 44.1488 28.858V33H43.1431ZM50.1531 33.1364C49.5224 33.1364 48.9783 32.9972 48.521 32.7188C48.0664 32.4375 47.7156 32.0455 47.4684 31.5426C47.2241 31.0369 47.1019 30.4489 47.1019 29.7784C47.1019 29.108 47.2241 28.517 47.4684 28.0057C47.7156 27.4915 48.0593 27.0909 48.4996 26.804C48.9428 26.5142 49.4599 26.3693 50.0508 26.3693C50.3917 26.3693 50.7283 26.4261 51.0607 26.5398C51.3931 26.6534 51.6957 26.8381 51.9684 27.0938C52.2411 27.3466 52.4585 27.6818 52.6204 28.0994C52.7823 28.517 52.8633 29.0312 52.8633 29.642V30.0682H47.8178V29.1989H51.8406C51.8406 28.8295 51.7667 28.5 51.619 28.2102C51.4741 27.9205 51.2667 27.6918 50.9968 27.5241C50.7298 27.3565 50.4144 27.2727 50.0508 27.2727C49.6502 27.2727 49.3036 27.3722 49.011 27.571C48.7212 27.767 48.4982 28.0227 48.342 28.3381C48.1857 28.6534 48.1076 28.9915 48.1076 29.3523V29.9318C48.1076 30.4261 48.1928 30.8452 48.3633 31.1889C48.5366 31.5298 48.7766 31.7898 49.0835 31.9688C49.3903 32.1449 49.7468 32.233 50.1531 32.233C50.4173 32.233 50.6559 32.196 50.869 32.1222C51.0849 32.0455 51.271 31.9318 51.4272 31.7812C51.5835 31.6278 51.7042 31.4375 51.7894 31.2102L52.761 31.483C52.6587 31.8125 52.4869 32.1023 52.2454 32.3523C52.0039 32.5994 51.7056 32.7926 51.3505 32.9318C50.9954 33.0682 50.5962 33.1364 50.1531 33.1364ZM59.0295 27.9205L58.1261 28.1761C58.0692 28.0256 57.9854 27.8793 57.8746 27.7372C57.7667 27.5923 57.619 27.473 57.4315 27.3793C57.244 27.2855 57.0039 27.2386 56.7113 27.2386C56.3107 27.2386 55.9769 27.331 55.7099 27.5156C55.4457 27.6974 55.3136 27.929 55.3136 28.2102C55.3136 28.4602 55.4045 28.6577 55.5863 28.8026C55.7681 28.9474 56.0522 29.0682 56.4386 29.1648L57.4102 29.4034C57.9954 29.5455 58.4315 29.7628 58.7184 30.0554C59.0053 30.3452 59.1488 30.7187 59.1488 31.1761C59.1488 31.5511 59.0408 31.8864 58.8249 32.1818C58.6119 32.4773 58.3136 32.7102 57.93 32.8807C57.5465 33.0511 57.1005 33.1364 56.592 33.1364C55.9244 33.1364 55.3718 32.9915 54.9343 32.7017C54.4968 32.4119 54.2198 31.9886 54.1033 31.4318L55.0579 31.1932C55.1488 31.5455 55.3207 31.8097 55.5735 31.9858C55.8292 32.1619 56.163 32.25 56.5749 32.25C57.0437 32.25 57.4158 32.1506 57.6914 31.9517C57.9698 31.75 58.109 31.5085 58.109 31.2273C58.109 31 58.0295 30.8097 57.8704 30.6562C57.7113 30.5 57.467 30.3835 57.1374 30.3068L56.0465 30.0511C55.4471 29.9091 55.0067 29.6889 54.7255 29.3906C54.4471 29.0895 54.3079 28.7131 54.3079 28.2614C54.3079 27.892 54.4116 27.5653 54.619 27.2812C54.8292 26.9972 55.1147 26.7741 55.4755 26.6122C55.8391 26.4503 56.2511 26.3693 56.7113 26.3693C57.359 26.3693 57.8675 26.5114 58.2369 26.7955C58.609 27.0795 58.8732 27.4545 59.0295 27.9205ZM61.6683 29.0625V33H60.6626V24.2727H61.6683V27.4773H61.7536C61.907 27.1392 62.1371 26.8707 62.4439 26.6719C62.7536 26.4702 63.1655 26.3693 63.6797 26.3693C64.1257 26.3693 64.5163 26.4588 64.8516 26.6378C65.1868 26.8139 65.4467 27.0852 65.6314 27.4517C65.8189 27.8153 65.9126 28.2784 65.9126 28.8409V33H64.907V28.9091C64.907 28.3892 64.772 27.9872 64.5021 27.7031C64.2351 27.4162 63.8643 27.2727 63.3899 27.2727C63.0604 27.2727 62.7649 27.3423 62.5036 27.4815C62.245 27.6207 62.0405 27.8239 61.8899 28.0909C61.7422 28.358 61.6683 28.6818 61.6683 29.0625Z" fill="#FA4238"/>
<defs>
<clipPath id="clip0_231_67">
<rect width="10" height="10" fill="white" transform="translate(35 13)"/>
</clipPath>
<clipPath id="clip1_231_67">
<rect width="11" height="10" fill="white" transform="translate(43)"/>
</clipPath>
</defs>
</svg>
